<svg id="Group_2" data-name="Group 2" xmlns="http://www.w3.org/2000/svg"
  xmlns:xlink="http://www.w3.org/1999/xlink" width="199.089" height="91.374"
  viewBox="0 0 199.089 91.374">
  <defs>
    <clipPath id="clip-path">
      <rect id="Rectangle_5" data-name="Rectangle 5" width="199.089" height="91.374" fill="none" />
    </clipPath>
  </defs>
  <g id="Group_1" data-name="Group 1" clip-path="url(#clip-path)">
    <path id="Path_1" data-name="Path 1"
      d="M1143.349,168.057a10.878,10.878,0,0,0-7.568-7.465,13,13,0,0,0-3.655-.556l-6.183-.041-6.179.038a13.212,13.212,0,0,0-3.647.549c-4.607,1.31-7.977,5.5-7.84,9.746a334.224,334.224,0,0,0,2.97,36.145c.017.115.034.234.051.355a8.616,8.616,0,0,0,.247,1.3,7.22,7.22,0,0,0,7.063,5.009,7.707,7.707,0,0,0,1.312-.112l.343-.059v-1.209l-.415-.006a6.042,6.042,0,0,1-4.211-1.672,4.441,4.441,0,0,1-1.281-3.624l0-.032c.07-7.451.1-17.646.123-26.641.009-3.318.018-6.464.028-9.233v-.018a4.578,4.578,0,0,1,3.567-4.393l.025-.008a10.4,10.4,0,0,1,2.993-.241c.271,0,.529.005.755,0l4.1.01,4.092-.011c.225,0,.474,0,.736,0a10.488,10.488,0,0,1,3.017.241l.027.008a4.592,4.592,0,0,1,3.564,4.179v.466a1.985,1.985,0,0,0,.01.233h-.01c.012,2.982.022,6.44.032,10.09.024,8.579.051,18.3.117,25.318l0,.031a4.445,4.445,0,0,1-1.279,3.622,6.054,6.054,0,0,1-4.214,1.673l-.415.006v1.209l.343.059c3.729.642,7.483-1.555,8.363-4.884a7.93,7.93,0,0,0,.241-1.255c.019-.141.038-.279.06-.417,1.03-7.135,1.819-15.068,2.412-24.254.216-3.529.4-7.342.547-11.653a8.911,8.911,0,0,0-.245-2.508"
      transform="translate(-977.917 -141.177)" fill="#fdb71a" />
    <path id="Path_2" data-name="Path 2"
      d="M611.239,188.594l-2.148,6.5a1.95,1.95,0,0,0,.586,1.965,3.025,3.025,0,0,0,2.049.668H616.2l-2.76,1.422-5.853,37.713,10.243-3.051,5.435-36.084h9.409v22.412q.187,7.4-5.9,7.4h-3.471l-1.8,9.157h6.94q13.986-.754,14.049-16.307V188.594Z"
      transform="translate(-536.123 -166.412)" fill="#0d2d6c" />
    <path id="Path_3" data-name="Path 3"
      d="M937.548,188.594l-2.146,6.5a1.946,1.946,0,0,0,.585,1.965,3.025,3.025,0,0,0,2.049.668h3.136v39.011l9.825-3.3V188.594Z"
      transform="translate(-825.345 -166.412)" fill="#0d2d6c" />
    <path id="Path_4" data-name="Path 4"
      d="M1432.94,47.288c-.711,12.669-6.983,20.362-18.9,23.08l-.92-8.906q9.407-2.948,9.533-14.676V31.316h-19.108V11.289h-5.226L1413.373,0l-.042,22.076,19.609.042Z"
      transform="translate(-1233.851)" fill="#0d2d6c" />
    <path id="Path_5" data-name="Path 5"
      d="M43.42,212.529V188.594H32.062l-2.147,6.5a1.946,1.946,0,0,0,.585,1.965,3.025,3.025,0,0,0,2.049.669h1.045v12.334L21.172,188.594H13.331l-2.147,6.5a1.946,1.946,0,0,0,.585,1.965,3.026,3.026,0,0,0,2.049.669h.836l1.923,3.345a19.541,19.541,0,0,0-5.853,13.714l.042,21.909h9.951l3.052-9.24H20.591V215.289a12.491,12.491,0,0,1,1-5.561L37.148,236.7l6.523-9.24L36.479,215Z"
      transform="translate(-9.463 -166.412)" fill="#0d2d6c" />
    <path id="Path_6" data-name="Path 6"
      d="M346.168,189.956H325.348l-2.094,6.34a1.946,1.946,0,0,0,.585,1.965,3.025,3.025,0,0,0,2.049.669h14.8c2.258.251,3.428,1.589,3.428,4.014l-.042,35,9.826-3.3v-33.2c-.037-6.691-2.625-10.536-7.733-11.482"
      transform="translate(-285.198 -167.613)" fill="#0d2d6c" />
    <rect id="Rectangle_1" data-name="Rectangle 1" width="1.105" height="1.416"
      transform="translate(141.171 83.303)" fill="#0d2d6c" />
    <rect id="Rectangle_2" data-name="Rectangle 2" width="1.105" height="1.416"
      transform="translate(146.444 83.303)" fill="#0d2d6c" />
    <rect id="Rectangle_3" data-name="Rectangle 3" width="1.105" height="1.416"
      transform="translate(151.718 83.303)" fill="#0d2d6c" />
    <path id="Path_7" data-name="Path 7"
      d="M1213.988,285.281h-9.113l-2.642-2.737V265.4a1.474,1.474,0,0,1,1.472-1.473h10.282a1.474,1.474,0,0,1,1.473,1.473v18.413a1.474,1.474,0,0,1-1.473,1.472m-8.78-.785h8.78a.689.689,0,0,0,.688-.688V265.4a.689.689,0,0,0-.688-.688h-10.282a.689.689,0,0,0-.688.688v16.832Z"
      transform="translate(-1060.827 -232.881)" fill="#0d2d6c" />
    <rect id="Rectangle_4" data-name="Rectangle 4" width="130.847" height="14.928"
      transform="translate(0 76.446)" fill="#fdb71a" />
    <path id="Path_8" data-name="Path 8"
      d="M176.263,693.042c0-.958-.23-1.263-.839-1.263h-1.118v-.708h1.368c1.008,0,1.428.545,1.428,2.037v4.5h-.839Z"
      transform="translate(-153.804 -609.787)" />
    <path id="Path_9" data-name="Path 9"
      d="M213.775,691.07h.839V696.9h1.468c.948,0,1.268-.436,1.268-1.819v-3.3h-.469v-.708h1.308v3.986c0,1.906-.6,2.549-2.107,2.549h-2.306Zm1.178,4.139a4.211,4.211,0,0,0,.589-2.571v-.861H215.1v-.708h1.288v1.656a4.293,4.293,0,0,1-.859,2.865Z"
      transform="translate(-188.631 -609.787)" />
    <path id="Path_10" data-name="Path 10"
      d="M264.279,696.9h1.228c.559,0,.779-.2.779-1.318v-3.8h-2.007v-.708h2.845v4.575c0,1.492-.389,1.961-1.388,1.961h-1.458Z"
      transform="translate(-233.195 -609.787)" />
    <path id="Path_11" data-name="Path 11"
      d="M305.136,691.778H302.56v-.708h3.414v6.535h-.839Zm-2.416,2.8a5.223,5.223,0,0,1,.11-1.187l.819.076a5.939,5.939,0,0,0-.09,1.111v3.028h-.839Z"
      transform="translate(-266.973 -609.787)" />
    <path id="Path_12" data-name="Path 12"
      d="M370.818,693.02v4.586h-3.325V691.07h2.017c.909,0,1.308.468,1.308,1.95m-.839,3.878V693c0-.991-.18-1.22-.749-1.22h-.9V696.9Z"
      transform="translate(-324.269 -609.787)" />
    <path id="Path_13" data-name="Path 13" d="M408.728,691.777h-.749v-.708h1.587v3.42h-.839Z"
      transform="translate(-359.993 -609.786)" />
    <path id="Path_14" data-name="Path 14"
      d="M436.415,695.852V691.07h3.335v4.782c0,1.253-.559,1.808-1.667,1.808s-1.667-.556-1.667-1.808m2.5-.12v-3.954h-1.657v3.954c0,.86.19,1.22.829,1.22s.829-.359.829-1.22"
      transform="translate(-385.084 -609.787)" />
    <path id="Path_15" data-name="Path 15"
      d="M481.008,691.778h-2.576v-.708h3.414v6.535h-.839Zm-2.416,2.8a5.224,5.224,0,0,1,.11-1.187l.819.076a5.939,5.939,0,0,0-.09,1.111v3.028h-.839Z"
      transform="translate(-422.159 -609.787)" />
    <path id="Path_16" data-name="Path 16"
      d="M541.782,687.856V685.9h-1.9V684.4h.759v.784h1.977v2.669a6.07,6.07,0,0,1-1.228,3.867h-.9a6.186,6.186,0,0,0,1.288-3.867"
      transform="translate(-476.384 -603.904)" />
    <path id="Path_17" data-name="Path 17"
      d="M578.835,691.07v4.313c0,1.732-.609,2.222-1.9,2.222H575.45V696.9h.918l-.769-5.827h.839l.769,5.816c.629-.065.789-.49.789-1.547v-3.562h-.589v-.708Z"
      transform="translate(-507.766 -609.787)" />
    <path id="Path_18" data-name="Path 18"
      d="M642.689,693.02v4.586h-3.325V691.07h2.017c.908,0,1.308.468,1.308,1.95m-.839,3.878V693c0-.991-.18-1.22-.749-1.22h-.9V696.9Z"
      transform="translate(-564.162 -609.787)" />
    <path id="Path_19" data-name="Path 19" d="M680.6,691.777h-.749v-.708h1.588v3.42H680.6Z"
      transform="translate(-599.887 -609.786)" />
    <path id="Path_20" data-name="Path 20"
      d="M707.187,693.042c0-.958-.23-1.263-.839-1.263H705.23v-.708H706.6c1.008,0,1.428.545,1.428,2.037v4.5h-.839Z"
      transform="translate(-622.281 -609.787)" />
    <path id="Path_21" data-name="Path 21"
      d="M745.923,693V697.6h-1.957V696.9h1.118v-4.041c0-.937-.24-1.078-.629-1.078h-.25l-1.078,5.827h-.819l.719-3.605-.789-2.93h.779l.369,1.471h.03l.26-1.471h.908c.879,0,1.338.436,1.338,1.928"
      transform="translate(-654.937 -609.786)" />
    <path id="Path_22" data-name="Path 22" d="M787.295,691.777h-.579v-.708h1.418V697.6h-.839Z"
      transform="translate(-694.183 -609.786)" />
    <path id="Path_23" data-name="Path 23"
      d="M814.811,691.07h.839V696.9h1.468c.948,0,1.268-.436,1.268-1.819v-3.3h-.469v-.708h1.308v3.986c0,1.906-.6,2.549-2.107,2.549h-2.306Zm1.178,4.139a4.21,4.21,0,0,0,.589-2.571v-.861h-.439v-.708h1.288v1.656a4.294,4.294,0,0,1-.859,2.865Z"
      transform="translate(-718.973 -609.787)" />
  </g>
</svg>